<svg width="240" height="70" viewBox="0 0 240 70" fill="none" xmlns="http://www.w3.org/2000/svg">
<g clip-path="url(#clip0_247_190)">
<path d="M58.8801 30.8409C58.8801 39.9467 58.8801 49.0519 58.8801 58.1577C58.8801 58.338 58.8658 58.5193 58.8762 58.6991C58.9068 59.2444 58.6517 59.4607 58.1091 59.4587C55.315 59.4488 52.521 59.4621 49.7264 59.4548C48.6683 59.4518 48.4517 59.2114 48.4517 58.1256C48.4522 49.184 48.4532 40.2428 48.4532 31.3011C48.4532 31.1208 48.4576 30.94 48.4482 30.7597C48.4186 30.1981 48.2879 30.1365 47.7477 30.2892C47.1809 30.4498 46.5905 30.5291 46.1879 31.0331C46.1391 31.0942 46.0059 31.1173 45.9146 31.1114C45.3029 31.0715 44.7879 31.2671 44.2497 31.5705C43.8659 31.7873 43.3337 31.7434 42.8675 31.8134C42.5444 31.8622 42.1719 31.8198 41.9065 31.9691C40.8573 32.5573 39.7123 32.4873 38.5925 32.4917C32.4617 32.5179 26.3309 32.5046 20.2001 32.5252C19.6028 32.5272 19.4197 32.2927 19.4301 31.7385C19.4518 30.5907 19.4326 29.4419 19.441 28.2931C19.4464 27.5615 20.3432 26.5837 20.8908 26.159C21.9035 25.3747 23.0115 25.6299 24.0923 25.6201C27.396 25.59 30.7006 25.6536 34.0033 25.593C36.0722 25.555 38.2018 25.9945 40.181 24.9905C41.1508 25.1309 41.874 24.4683 42.6485 24.1116C43.5473 23.6978 44.3528 22.9998 45.0686 22.2938C45.7948 21.5776 46.5007 20.7701 46.956 19.8721C47.3265 19.1415 47.9658 18.4612 47.8612 17.506C47.8316 17.236 48.0738 16.9444 48.1562 16.6528C48.2697 16.2503 48.43 15.8389 48.432 15.431C48.4542 10.8048 48.4497 6.17801 48.4527 1.55125C48.4527 1.3872 48.4443 1.22217 48.4566 1.05911C48.5138 0.310315 48.7378 0.0497145 49.4931 0.0413399C51.5639 0.018679 53.6408 -0.058171 55.7033 0.0748386C56.6933 0.13888 57.5916 0.7256 58.1481 1.65174C58.1816 1.7079 58.1915 1.79116 58.2384 1.82416C59.0188 2.37098 58.8797 3.18825 58.8792 3.96562C58.8792 12.9236 58.8792 21.8815 58.8792 30.8395L58.8801 30.8409Z" fill="#8A8B8D"/>
<path d="M0.00803035 21.6776C0.00803035 14.8842 0.00803035 8.0909 0.00803035 1.29755C0.00803035 1.08425 0.01395 0.870938 0.0178964 0.65763C0.0262826 0.238403 0.232484 0.0305141 0.661165 0.0310067C3.52134 0.0339625 6.38202 0.0295288 9.2422 0.0349478C9.69801 0.035933 10.3255 0.738421 10.3127 1.19164C10.2919 1.94487 10.2638 2.6981 10.2633 3.45132C10.2604 16.4473 10.2564 29.4429 10.2697 42.4389C10.2707 43.401 10.3842 44.3656 10.4883 45.3242C10.5169 45.5843 10.7093 45.8252 10.8168 46.0789C10.9362 46.3602 11.0196 46.6597 11.1626 46.9277C11.4196 47.4085 11.7132 47.8696 11.9855 48.3426C12.649 49.4948 13.711 50.2825 14.7815 50.9436C15.3779 51.3116 16.0074 51.8136 16.8618 51.8432C17.8104 51.8762 18.7482 52.1855 19.6943 52.3511C20.0308 52.4097 20.3795 52.4161 20.7229 52.4166C26.7067 52.4205 32.6904 52.42 38.6742 52.421C39.3984 52.421 39.5375 52.558 39.539 53.2782C39.541 54.361 39.5691 55.4453 39.5222 56.5266C39.5074 56.8709 39.3012 57.2118 39.1601 57.5444C39.0782 57.7375 38.9529 57.9128 38.8429 58.0936C38.7507 58.2459 38.6846 58.4813 38.5514 58.5311C37.7596 58.8267 37.1395 59.4769 36.1919 59.4715C31.0467 59.441 25.9011 59.4779 20.7559 59.4356C19.8399 59.4282 18.9253 59.1557 18.0107 59.0035C17.5909 58.9336 17.1661 58.774 16.7537 58.8015C15.6719 58.8735 14.7371 58.4395 13.7392 58.1528C13.011 57.9439 12.3125 57.7143 11.6367 57.3882C11.2208 57.1877 10.7996 56.998 10.3852 56.7936C9.85291 56.531 9.30879 56.2867 8.79872 55.9857C7.60443 55.2802 6.38695 54.6034 5.56165 53.4211C5.3515 53.1201 5.02099 52.9038 4.74869 52.6457C4.19865 52.1245 3.6427 51.6195 3.36546 50.8712C3.25397 50.5707 2.95306 50.3456 2.77645 50.0623C2.38181 49.4303 2.00838 48.7844 1.63347 48.1406C1.57033 48.0322 1.54122 47.9041 1.49485 47.7854C1.30345 47.2947 1.11155 46.8041 0.91867 46.3139C0.894498 46.2528 0.837275 46.1947 0.838755 46.1361C0.876246 44.6828 -0.0126884 43.4409 0.000137484 41.9591C0.0583474 35.1992 0.0257893 28.4384 0.0257893 21.6781C0.0198697 21.6781 0.01395 21.6781 0.00803035 21.6781V21.6776Z" fill="#8A8B8D"/>
<path d="M190.199 14.6369C190.199 13.3822 190.199 12.1275 190.199 10.8733C190.199 9.67322 190.093 8.42046 190.214 7.22683C190.284 6.54109 190.629 6.34354 191.292 6.31793C191.855 6.29625 193.068 6.0928 193.476 6.60414C193.653 6.82435 193.64 7.17411 193.648 7.43816C193.667 8.09631 193.65 8.75841 193.65 9.41705C193.65 10.6733 193.614 11.9354 193.652 13.1911C193.66 13.4605 193.638 14.2532 193.921 14.4276C194.233 14.6197 194.72 14.1079 194.995 14.0029C195.934 13.6477 197.229 13.7906 198.214 13.8093C198.832 13.8211 199.449 13.8507 200.067 13.8734C200.671 13.8955 200.919 13.9192 201.429 14.2389C202.401 14.8493 203.328 15.4237 203.95 16.4158C204.191 16.7991 204.526 17.2464 204.664 17.6779C204.849 18.2622 204.878 18.9529 204.976 19.5588C205.072 20.144 205.247 20.7815 205.266 21.3741C205.285 21.9722 205.067 22.6022 204.939 23.184C204.66 24.4595 204.151 25.4063 203.338 26.4285C203.028 26.8182 202.748 27.164 202.28 27.3586C201.84 27.5423 201.423 27.7364 200.996 27.9537C199.975 28.4744 199.009 28.3458 197.892 28.3552C196.659 28.366 195.627 28.3951 194.489 27.8734C194.06 27.6763 193.578 27.5778 193.174 27.3265C192.721 27.0458 192.43 26.6369 192.111 26.225C191.758 25.7693 191.296 25.359 191.074 24.8201C190.848 24.2708 190.672 23.6796 190.511 23.1077C190.137 21.7776 190.199 20.444 190.197 19.0726C190.194 17.5937 190.201 16.1153 190.199 14.6364L190.199 14.6369ZM193.723 21.2263H193.721C193.721 21.786 193.695 22.3485 193.698 22.9087C193.703 23.5909 193.91 23.9791 194.222 24.554C194.454 24.9811 194.636 25.4043 194.996 25.793C195.401 26.2295 195.946 26.3896 196.514 26.5147C197.718 26.7797 198.904 26.6423 200.014 26.0506C200.91 25.5733 201.14 24.7245 201.431 23.8259C202.158 21.583 201.943 19.2238 200.97 17.0838C200.56 16.1803 199.812 15.9104 198.978 15.4892C197.955 14.9719 196.608 15.332 195.688 15.9089C195.307 16.1483 194.9 16.3976 194.633 16.769C194.361 17.1459 194.312 17.5858 194.054 17.9666C193.46 18.842 193.723 20.2219 193.723 21.2263Z" fill="#8A8B8D"/>
<path d="M78.8399 17.5454C78.8399 14.265 78.8379 10.9846 78.8409 7.70369C78.8419 6.66375 79.0875 6.23516 80.2907 6.41694C80.4673 6.44354 80.6538 6.43911 80.8314 6.41694C81.7307 6.30561 82.3611 6.86376 82.3606 7.77906C82.3596 9.7476 82.3502 11.7157 82.3715 13.6837C82.3744 13.9448 82.4913 14.3911 82.6334 14.4251C82.9328 14.496 83.2944 14.3842 83.6111 14.2852C83.9851 14.168 84.3343 13.866 84.7013 13.8537C85.8305 13.8157 87.0135 13.6803 88.08 13.9537C89.3083 14.268 90.5953 14.633 91.4951 15.737C92.0762 16.4503 92.4511 17.1961 92.8053 18.0489C93.8852 20.649 93.2163 23.3264 93.4126 25.9585C93.455 26.5295 93.4091 27.1063 93.422 27.6803C93.4313 28.0985 93.2168 28.2867 92.8285 28.2921C92.0728 28.3024 91.3165 28.302 90.5608 28.2936C90.0996 28.2882 89.9605 28.0226 89.9619 27.5852C89.9723 24.7802 89.9861 21.9751 89.9437 19.1711C89.9363 18.6844 89.7094 18.1804 89.5002 17.7228C89.3088 17.3045 89.1904 16.8878 88.7849 16.5104C87.8792 15.667 86.8383 15.8596 85.8128 15.7951C85.6204 15.7828 85.4221 15.87 85.2292 15.8587C84.3841 15.8109 83.7665 16.2493 83.1987 16.7887C83.1149 16.868 83.0941 17.0178 83.0542 17.1385C83.0024 17.2932 83.0108 17.5154 82.9057 17.5976C82.2018 18.1504 82.3705 18.9198 82.3675 19.6401C82.3576 22.248 82.3621 24.856 82.3596 27.464C82.3586 28.2655 82.2669 28.3571 81.445 28.365C80.8205 28.3709 80.196 28.3561 79.572 28.3729C79.0491 28.3867 78.8345 28.1547 78.8359 27.6344C78.8448 24.2718 78.8404 20.9096 78.8399 17.5469V17.5454Z" fill="#8A8B8D"/>
<path d="M239.998 24.1915C239.998 25.2369 239.997 26.2817 240 27.3271C240.004 28.4158 239.495 28.365 238.53 28.3596C237.971 28.3567 236.674 28.6729 236.479 27.9567C236.38 27.5946 236.686 26.8359 236.395 26.5433C236.076 26.2216 235.566 26.9532 235.337 27.1744C234.727 27.7626 234.251 28.3931 233.363 28.4256C232.299 28.4651 230.984 28.6271 229.944 28.3793C229.596 28.2966 229.289 28.0897 228.968 27.9458C228.66 27.8079 228.319 27.7576 228.016 27.5941C227.707 27.4271 227.455 27.1793 227.213 26.9295C226.945 26.6532 226.561 26.3788 226.331 26.0807C226.155 25.8521 226.075 25.5211 225.923 25.2699C225.684 24.8782 225.576 24.6984 225.493 24.2432C225.324 23.3082 224.843 22.4432 224.793 21.4835C224.747 20.5953 225.08 19.6953 225.27 18.8381C225.463 17.9696 225.788 17.1016 226.181 16.3139C226.465 15.7439 227.042 15.4272 227.512 15.0311C228.161 14.4838 229.165 14.0931 230.019 13.931C230.924 13.7591 231.975 13.8887 232.892 13.8916C233.409 13.8931 233.97 13.834 234.482 13.897C234.999 13.9601 235.462 14.2439 235.933 14.4739C236.766 14.8793 237.724 15.3444 238.336 16.0661C238.588 16.3627 238.51 16.7819 238.726 17.0509C238.82 17.1676 239.029 17.2001 239.135 17.342C239.258 17.5056 239.283 17.6996 239.321 17.8942C239.491 18.7805 239.866 19.5849 239.893 20.4963C239.929 21.7279 239.895 22.9604 239.895 24.1925C239.929 24.1925 239.963 24.1925 239.997 24.1925L239.998 24.1915ZM228.345 21.1091C228.349 21.1091 228.354 21.1091 228.359 21.1091C228.359 21.8141 228.286 22.5289 228.379 23.2215C228.473 23.9112 229.143 24.4491 228.992 25.2369C228.982 25.291 229.076 25.3704 229.13 25.4305C229.982 26.3852 231.172 26.6438 232.331 26.7438C233.151 26.8147 233.984 26.4936 234.631 25.8182C235.243 25.1797 236.022 24.6831 236.003 23.654C236.001 23.5698 236.107 23.489 236.139 23.3979C236.278 23.0067 236.473 22.621 236.523 22.2175C236.591 21.6678 236.579 21.1022 236.542 20.547C236.483 19.6485 236.626 18.6967 235.937 17.9351C235.846 17.8346 235.823 17.6657 235.788 17.5238C235.572 16.6558 234.951 16.2094 234.148 15.9602C233.095 15.6336 232.06 15.5996 230.966 15.904C229.924 16.1937 229.161 16.6459 228.932 17.7622C228.904 17.9016 228.804 18.0248 228.754 18.1612C228.613 18.5514 228.408 18.9366 228.362 19.3391C228.295 19.9219 228.345 20.518 228.345 21.1086V21.1091Z" fill="#8A8B8D"/>
<path d="M103.313 28.3991C102.528 28.3641 101.74 28.3523 100.958 28.2804C100.724 28.2587 100.504 28.0725 100.281 27.9542C100.181 27.9015 100.098 27.7887 99.9965 27.7734C98.778 27.5872 98.1303 26.6493 97.4199 25.8123C97.0179 25.3389 96.6676 24.8167 96.3401 24.2881C96.2197 24.094 96.2311 23.8186 96.1837 23.5802C96.0693 23.0063 95.9178 22.4358 95.8527 21.8565C95.796 21.353 95.8044 20.8358 95.8463 20.3293C95.8754 19.9766 96.123 19.617 96.0767 19.2879C95.9415 18.3268 96.3717 17.5485 96.863 16.8425C97.305 16.2075 97.8955 15.6444 98.5146 15.1715C99.1371 14.6956 99.8638 14.3483 100.569 13.9912C100.819 13.8641 101.139 13.833 101.428 13.8291C102.725 13.8124 104.023 13.8193 105.321 13.8252C105.465 13.8257 105.629 13.8404 105.75 13.9089C106.42 14.2897 107.089 14.674 107.739 15.0878C108.066 15.2962 108.398 15.5297 108.647 15.8208C109.089 16.34 109.469 16.9115 109.875 17.4613C109.904 17.5007 109.953 17.5391 109.958 17.5815C110.085 18.7756 110.981 19.7978 110.703 21.0939C110.588 21.6299 110.742 22.2329 110.584 22.7476C110.309 23.6462 109.872 24.494 109.53 25.3734C109.174 26.2887 108.46 26.9256 107.663 27.3399C106.856 27.7592 106.097 28.3991 105.089 28.3661C104.498 28.3469 103.906 28.3626 103.315 28.3626C103.315 28.3744 103.314 28.3868 103.313 28.3986L103.313 28.3991ZM107.237 21.0762H107.24C107.24 20.1333 107.527 18.6751 106.902 17.8903C106.354 17.2016 106.376 16.2312 105.323 15.9863C104.397 15.771 103.316 15.5228 102.365 15.7159C101.377 15.9164 100.244 16.6642 99.7459 17.5637C99.4795 18.0445 99.4963 18.7884 99.3808 19.3244C99.2531 19.9175 99.0922 20.5106 99.0799 21.121C99.0676 21.7516 99.2585 22.3466 99.4015 22.9536C99.5259 23.4812 99.5564 24.0349 99.7508 24.5448C100.119 25.5093 101.002 26.2084 101.969 26.5172C102.433 26.665 103.015 26.802 103.506 26.7512C103.996 26.7 104.514 26.4463 104.992 26.3231C106.054 26.0497 106.279 25.2492 106.831 24.4383C107.474 23.4935 107.236 22.1718 107.236 21.0762H107.237Z" fill="#8A8B8D"/>
<path d="M214.995 13.8152C215.791 13.8152 216.645 13.6329 217.421 13.8497C218.189 14.0645 218.946 14.5019 219.584 14.9739C220.233 15.4537 220.782 16.0567 221.261 16.7025C221.799 17.4281 221.858 18.1765 222.168 18.9903C222.442 19.708 222.728 20.3529 222.729 21.1386C222.732 22.0106 222.266 22.7229 222.143 23.5624C222.038 24.2865 222.036 24.6245 221.467 25.1284C220.93 25.6033 220.717 26.2895 220.134 26.7482C218.761 27.827 217.187 28.3812 215.448 28.3157C214.682 28.2867 213.921 28.2684 213.155 28.2586C212.385 28.2487 211.408 27.6009 210.75 27.2039C209.689 26.5649 208.401 25.3215 208.196 24.0392C208.071 23.2589 207.695 22.5766 207.577 21.7707C207.446 20.8815 207.48 20.0465 207.867 19.2257C208.226 18.4617 208.254 17.6178 208.701 16.8734C209.114 16.1867 209.704 15.4966 210.394 15.0808C210.77 14.8542 211.184 14.7054 211.572 14.5034C211.914 14.3261 212.211 14.0704 212.58 13.9408C213.368 13.665 214.19 13.9251 214.995 13.8147V13.8152ZM210.89 21.1022C210.961 22.4618 210.968 23.6594 211.662 24.8777C212.321 26.0339 213.164 26.4694 214.445 26.724C215.035 26.8413 215.574 26.7506 216.14 26.562C216.578 26.4161 217.165 26.3088 217.562 26.0925C218.332 25.6733 218.699 24.5836 218.921 23.8047C219.235 22.7032 219.229 21.7283 219.271 20.5957C219.315 19.4489 218.897 18.6277 218.538 17.5676C218.223 16.634 217.596 16.0581 216.631 15.7606C215.48 15.4054 214.491 15.5503 213.36 15.8862C212.282 16.2064 211.729 16.9345 211.37 17.9686C211.204 18.4444 211.002 18.9538 210.927 19.4519C210.844 19.9967 210.917 20.5544 210.89 21.1022H210.89Z" fill="#8A8B8D"/>
<path d="M132.181 22.156C130.944 22.156 129.707 22.156 128.47 22.156C127.698 22.156 126.276 22.1387 126.947 23.2856C127.403 24.0644 127.42 24.8841 128.15 25.5379C128.832 26.1482 129.771 26.6305 130.654 26.8601C131.102 26.9768 131.569 27.0276 132.029 26.9596C132.596 26.8763 132.981 26.5507 133.493 26.3679C133.886 26.2275 134.273 26.3551 134.375 26.8118C134.474 27.2532 134.162 27.5035 133.811 27.6867C133.389 27.9074 132.892 28.2252 132.423 28.3291C131.866 28.4523 131.187 28.3759 130.621 28.3754C130.073 28.3754 129.466 28.4281 128.939 28.2651C128.446 28.1128 128.008 27.8246 127.518 27.6685C125.831 27.132 124.144 25.0378 123.827 23.3225C123.621 22.2097 123.682 20.95 123.765 19.8249C123.85 18.6623 124.259 17.8425 124.927 16.9021C125.482 16.1193 126.142 15.6656 126.875 15.0754C127.169 14.8395 127.47 14.6035 127.842 14.5089C128.044 14.4577 128.263 14.4971 128.459 14.434C128.686 14.3616 128.859 14.1665 129.089 14.0867C130.023 13.7636 131.278 13.7266 132.194 14.1015C133.138 14.4882 134.114 14.7079 134.911 15.3868C136.61 16.8321 137.825 18.9238 137.693 21.1953C137.645 22.0313 137.256 22.1456 136.473 22.1555C135.043 22.1727 133.611 22.1555 132.182 22.154L132.181 22.156ZM130.39 20.0825C130.39 20.0874 130.39 20.0919 130.39 20.0968C131.412 20.0968 132.529 20.2254 133.543 20.084C133.86 20.0396 134.068 19.983 134.154 19.6933C134.259 19.3352 134.153 18.715 134.085 18.348C133.936 17.5524 133.395 16.8888 132.753 16.4341C132.082 15.9597 131.563 15.903 130.762 15.8828C130.057 15.8651 129.321 15.8045 128.72 16.2464C128.058 16.7341 127.478 17.7031 127.182 18.4573C126.928 19.1041 126.34 20.0037 127.368 20.0795C128.364 20.1529 129.391 20.082 130.39 20.082V20.0825Z" fill="#8A8B8D"/>
<path d="M157.748 15.0346C157.748 17.5608 157.735 20.087 157.764 22.6127C157.768 22.96 157.979 23.3068 158.103 23.6506C158.147 23.7713 158.256 23.8782 158.269 23.9984C158.346 24.764 158.962 25.1349 159.427 25.6202C160.568 26.8109 162.005 27.0468 163.573 26.9941C165.083 26.9434 166.596 26.9897 168.108 26.9793C168.595 26.9759 168.887 27.1266 168.906 27.6705C168.925 28.2429 168.586 28.3011 168.142 28.2996C165.644 28.2907 163.146 28.303 160.649 28.2745C160.335 28.271 160.021 28.0744 159.709 27.9592C159.485 27.8759 159.27 27.7232 159.041 27.6991C158.172 27.6074 157.549 27.1227 156.978 26.5222C156.677 26.2049 156.311 25.9428 156.042 25.6024C155.557 24.9867 155.053 24.3733 154.955 23.5388C154.919 23.229 154.767 22.9334 154.674 22.6294C154.547 22.2141 154.322 21.7979 154.32 21.3806C154.292 16.7386 154.297 12.0965 154.298 7.45451C154.298 6.97222 154.909 6.34067 155.409 6.32195C155.984 6.30028 156.562 6.28501 157.133 6.33723C157.317 6.35398 157.552 6.55891 157.636 6.73773C157.741 6.96188 157.741 7.24711 157.742 7.50623C157.749 10.0162 157.746 12.5256 157.746 15.0356H157.748V15.0346Z" fill="#8A8B8D"/>
<path d="M143.906 15.1789C143.906 17.5903 143.902 20.0017 143.91 22.4131C143.912 22.8535 143.867 23.3363 144.027 23.723C144.211 24.1654 144.582 24.5403 144.908 24.9122C145.273 25.3295 145.653 25.7443 146.081 26.093C146.27 26.2472 146.593 26.2793 146.858 26.2921C147.798 26.3359 148.361 27.0896 148.034 27.9655C147.968 28.1414 147.678 28.3389 147.485 28.3443C146.707 28.367 145.896 28.4419 145.266 27.8153C145.243 27.7931 145.207 27.769 145.179 27.7714C144.339 27.8483 143.787 27.2404 143.136 26.8881C142.714 26.6601 142.261 26.3669 142.002 25.9822C141.151 24.7211 140.349 23.458 140.368 21.8042C140.421 16.9986 140.381 12.1916 140.385 7.38499C140.385 6.39284 140.556 6.23913 141.553 6.24111C141.899 6.2416 142.244 6.23864 142.589 6.24111C143.426 6.24652 143.904 6.71945 143.905 7.54953C143.906 10.092 143.905 12.6349 143.907 15.1774L143.906 15.1789Z" fill="#8A8B8D"/>
<path d="M118.294 22.0214C118.294 23.859 118.28 25.6969 118.302 27.5345C118.309 28.1162 118.077 28.3335 117.511 28.301C117.003 28.2719 116.492 28.2946 115.983 28.2931C115.586 28.2916 115.32 28.135 115.285 27.7034C115.27 27.5246 115.231 27.3468 115.231 27.1684C115.229 23.8269 115.219 20.4849 115.245 17.1439C115.249 16.6198 115.367 16.0937 114.941 15.6922C114.747 15.5089 114.484 15.3202 114.233 15.2892C113.731 15.2271 113.216 15.2749 112.707 15.272C112.234 15.2695 111.853 15.169 111.876 14.565C111.898 13.9793 112.077 13.7975 112.697 13.796C113.01 13.7951 113.331 13.7487 113.633 13.8059C114.383 13.9478 114.835 13.6024 115.139 12.9738C115.193 12.862 115.236 12.73 115.235 12.6083C115.21 10.8895 115.159 9.17075 115.151 7.45148C115.146 6.63076 115.587 6.23961 116.404 6.24158C116.782 6.24257 117.16 6.24356 117.538 6.24306C118.221 6.24208 118.359 6.36326 118.361 7.03176C118.368 8.80374 118.366 10.5757 118.366 12.3482C118.366 13.3335 118.846 13.8039 119.851 13.8005C120.295 13.799 120.739 13.7941 121.182 13.8C121.683 13.8064 121.747 14.1483 121.748 14.5424C121.748 14.9404 121.673 15.2729 121.173 15.2739C120.614 15.2749 120.055 15.2695 119.497 15.2729C118.524 15.2788 118.299 15.4966 118.297 16.4602C118.292 18.3144 118.295 20.1687 118.295 22.0224L118.294 22.0214Z" fill="#8A8B8D"/>
<path d="M182.169 28.3611C181.458 28.3611 180.747 28.369 180.037 28.3675C179.45 28.366 178.734 28.4764 178.233 28.1054C177.527 27.5822 177.543 25.762 178.658 26.4935C179.717 27.1891 180.775 26.9029 181.989 26.9665C182.571 26.997 183.088 27.0842 183.643 26.8458C184.129 26.6364 184.652 26.2521 184.99 25.8447C185.681 25.0122 185.357 23.9299 184.58 23.2782C183.705 22.5436 182.462 22.2791 181.429 21.8481C180.958 21.6515 180.439 21.5471 179.986 21.3155C179.452 21.0416 178.93 20.5933 178.507 20.1707C177.739 19.4017 177.634 18.2795 177.67 17.2449C177.711 16.0848 178.333 15.1882 179.257 14.5197C180.323 13.7483 181.404 13.7069 182.671 13.7433C183.377 13.7635 184.083 13.7699 184.788 13.7916C185.397 13.8103 186.046 13.7645 186.596 14.0709C187.061 14.3315 187.461 14.7872 187.623 15.2981C187.776 15.7808 187.671 16.4316 187.069 16.2799C186.578 16.1562 186.143 15.8488 185.701 15.6163C185.138 15.3207 184.671 15.2385 184.04 15.272C182.935 15.3306 181.639 14.9222 180.879 15.9099C180.134 16.8779 180.342 17.5937 181.174 18.4011C181.502 18.7194 181.835 19.0494 182.267 19.2219C182.516 19.3209 182.77 19.2933 183.014 19.3756C183.282 19.4657 183.45 19.7017 183.695 19.8253C184.274 20.1175 184.942 20.1825 185.528 20.5189C186.1 20.8475 186.802 21.2283 187.271 21.6929C187.978 22.3939 188.258 23.6629 188.223 24.6225C188.204 25.1664 188.046 25.6014 187.75 26.0561C187.425 26.5536 186.966 27.2837 186.474 27.6177C185.174 28.499 183.679 28.4158 182.169 28.4842C182.169 28.4434 182.168 28.4025 182.168 28.3616L182.169 28.3611Z" fill="#8A8B8D"/>
<path d="M175.003 21.0859C175.003 23.252 174.993 25.4176 175.009 27.5837C175.014 28.1542 174.788 28.3906 174.218 28.3694C173.545 28.3448 172.87 28.3601 172.196 28.3591C171.776 28.3586 171.557 28.1571 171.557 27.7295C171.557 23.2993 171.556 18.8691 171.555 14.4384C171.555 14.0118 171.777 13.8078 172.195 13.8054C172.918 13.8014 173.641 13.8128 174.364 13.7931C174.831 13.7802 175.01 13.9807 175.008 14.4399C174.997 16.6547 175.003 18.8701 175.003 21.0854V21.0859Z" fill="#8A8B8D"/>
<path d="M175.764 45.3341C175.764 46.3489 175.79 47.1229 175.109 47.9426C174.514 48.6584 173.711 49.556 172.765 49.751C171.798 49.9505 170.571 49.9397 169.724 49.388C169.334 49.1343 168.985 48.7978 168.621 48.5096C168.221 48.1924 168.151 47.9145 168.006 47.4347C167.728 46.5105 167.142 45.4696 167.597 44.5021C167.696 44.2922 167.847 44.1341 167.908 43.9109C167.957 43.7326 167.933 43.5459 167.992 43.3651C168.129 42.9449 168.457 42.6503 168.752 42.3385C169.025 42.0493 169.239 41.7173 169.59 41.5133C169.949 41.3049 170.365 41.2488 170.748 41.1005C171.119 40.9566 171.356 40.8029 171.772 40.8625C172.22 40.9266 172.602 41.1034 173.005 41.2542C173.462 41.4251 173.835 41.4291 174.254 41.7424C174.665 42.0503 174.895 42.2064 175.059 42.6754C175.215 43.1203 175.524 43.4922 175.697 43.9287C175.889 44.4134 175.764 44.8361 175.763 45.3341H175.764ZM171.483 48.2687C172.228 48.4086 172.861 48.2441 173.262 47.5741C173.657 46.913 174.242 46.0622 174.181 45.2607C174.146 44.7977 173.89 44.5218 173.704 44.1223C173.564 43.8228 173.636 43.4838 173.466 43.1996C173.288 42.902 172.981 42.8375 172.687 42.7025C172.337 42.5409 172.011 42.2798 171.616 42.2345C170.968 42.1601 170.417 42.7725 169.987 43.1833C169.459 43.6868 169.376 44.5696 169.385 45.2568C169.396 46.0519 169.351 46.8839 169.799 47.581C170.174 48.1643 170.79 48.52 171.483 48.2687H171.483Z" fill="#8A8B8D"/>
<path d="M163.86 37.8861C164.35 37.9196 164.84 37.9457 165.33 37.9812C165.655 38.0048 166.111 37.9551 166.39 38.1457C166.84 38.4536 166.806 39.262 166.28 39.4359C165.934 39.5502 165.456 39.4226 165.103 39.398C164.652 39.3669 164.2 39.3724 163.748 39.3743C162.983 39.3773 162.185 39.3798 161.501 39.763C160.188 40.4995 159.714 41.8468 159.538 43.2548C159.368 44.6149 159.785 46.7431 161.062 47.5121C161.586 47.8278 162.041 48.2643 162.685 48.318C163.464 48.383 164.344 48.3436 165.126 48.316C165.593 48.2993 166.728 48.1382 166.612 48.8638C166.484 49.6599 165.385 49.8082 164.785 49.7993C163.884 49.7855 162.982 49.7451 162.081 49.7269C161.464 49.7141 160.8 49.1771 160.241 48.8875C158.86 48.1712 158.151 46.5904 157.85 45.1179C157.648 44.1287 157.737 43.2163 158.052 42.2661C158.325 41.4458 158.493 40.603 159.009 39.8901C159.509 39.2014 160.216 38.7029 160.981 38.3452C161.967 37.8851 162.803 37.9295 163.856 37.9295C163.857 37.9157 163.858 37.9014 163.859 37.8876L163.86 37.8861Z" fill="#8A8B8D"/>
<path d="M130.099 46.2494C130.099 47.0996 130.194 47.9967 130.071 48.8411C129.969 49.5519 129.428 50.082 128.779 49.4953C128.486 49.2307 128.369 48.9642 127.914 49.1352C127.605 49.2514 127.421 49.5519 127.092 49.6623C126.503 49.8593 125.51 49.8332 124.933 49.6066C123.556 49.0667 123.098 47.3775 123.783 46.1444C124.162 45.4621 124.611 45.0508 125.302 44.739C126.201 44.333 127.176 44.166 128.125 43.899C127.868 43.2005 127.709 42.4339 126.873 42.2492C126.243 42.1098 125.746 42.2394 125.245 42.5689C124.928 42.7773 124.668 42.8418 124.393 42.5591C124.148 42.3078 124.074 42.0049 124.294 41.7172C124.632 41.2748 125.794 40.9965 126.328 40.9093C127.336 40.7447 128.633 41.5817 129.299 42.2734C130.407 43.4236 129.905 44.8493 130.1 46.2498L130.099 46.2494ZM127.142 45.6631C127.139 45.6474 127.137 45.6316 127.135 45.6163C126.227 45.7597 125.4 45.9011 125.203 46.9686C125.144 47.2893 125.143 47.9189 125.413 48.1667C125.693 48.4223 126.232 48.3002 126.599 48.2795C127.024 48.2548 127.517 48.2864 127.794 47.946C127.966 47.7356 128.187 47.278 128.281 47.0159C128.377 46.7499 128.55 46.1045 128.35 45.8809C128.132 45.6375 127.408 45.6631 127.142 45.6631Z" fill="#8A8B8D"/>
<path d="M152.896 45.3479C152.896 45.9051 152.991 46.5391 152.812 47.0751C152.649 47.5598 152.297 47.948 151.947 48.3081C151.541 48.7268 151.078 49.2101 150.568 49.5027C150.045 49.8027 149.433 49.7308 148.852 49.7436C147.757 49.7673 146.871 49.4431 146.067 48.6874C145.248 47.918 144.731 46.4795 144.843 45.3523C144.964 44.1395 145.362 43.1129 146.194 42.2158C146.522 41.8626 146.874 41.4965 147.363 41.3872C147.602 41.3335 147.815 41.3167 148.046 41.2507C148.294 41.1798 148.49 41.0694 148.764 41.0359C151.013 40.763 153.518 42.9892 152.896 45.3479H152.896ZM146.628 45.4105C146.727 46.2913 146.53 47.1559 147.313 47.8184C147.821 48.2485 149.392 48.6658 149.935 48.2805C150.737 47.7115 151.75 46.2893 151.456 45.0967C151.336 44.61 150.994 44.1691 150.92 43.6823C150.788 42.8207 150.069 42.6301 149.49 42.3404C148.491 41.8404 147.913 42.6779 147.279 43.2148C147.055 43.4045 146.837 43.6848 146.773 43.9602C146.659 44.4484 146.666 44.9646 146.628 45.411V45.4105Z" fill="#8A8B8D"/>
<path d="M206.777 45.7139C206.777 45.1632 206.788 44.7853 206.775 44.409C206.74 43.4247 207.368 42.7995 207.927 42.0946C208.614 41.2266 209.728 41.4463 210.531 40.9167C210.622 40.8571 210.795 40.8827 210.917 40.9167C211.522 41.0862 212.154 41.2074 212.715 41.4739C213.092 41.6532 213.392 42.0232 213.685 42.3458C214.76 43.5316 214.934 44.9026 214.605 46.4346C214.44 47.2022 214.296 47.9342 213.701 48.4835C213.458 48.7071 213.174 48.8884 212.901 49.0771C212.809 49.1402 212.637 49.1352 212.593 49.2126C212.201 49.9156 211.533 49.7155 210.934 49.7392C210.77 49.7456 210.603 49.7239 210.442 49.7431C209.002 49.9121 208.275 48.9342 207.395 48.0367C206.626 47.2529 206.833 46.4036 206.777 45.7149L206.777 45.7139ZM213.052 45.4376C213.1 44.7494 213.157 43.9981 212.71 43.4188C212.379 42.9887 211.739 42.4458 211.234 42.2325C209.925 41.6788 208.332 43.4321 208.179 44.6178C208.091 45.2982 207.995 46.3583 208.423 46.9169C209.007 47.679 209.487 48.284 210.489 48.2963C210.9 48.3012 211.409 48.352 211.806 48.2278C212.162 48.1165 212.296 47.8204 212.501 47.5248C212.933 46.9012 213.359 46.2135 213.052 45.4381L213.052 45.4376Z" fill="#8A8B8D"/>
<path d="M143.219 46.1332C143.219 46.9238 143.651 49.7106 142.301 49.6944C140.934 49.6776 141.448 46.5923 141.462 45.8011C141.475 45.1164 141.525 44.3735 141.281 43.7188C141.043 43.0823 140.543 42.8055 139.975 42.4961C139.755 42.3764 139.594 42.2286 139.351 42.2793C139.133 42.3251 138.756 42.6882 138.585 42.8158C138.01 43.2454 137.703 43.6424 137.639 44.373C137.572 45.142 137.619 45.9307 137.632 46.7012C137.645 47.4071 137.87 48.4993 137.526 49.1431C137.32 49.5284 136.704 49.9215 136.315 49.5224C135.85 49.0456 136.021 47.8401 136.017 47.2381C136.012 46.4578 136.015 45.6775 136.01 44.8972C136.005 44.0178 135.884 43.1444 135.875 42.269C135.869 41.7187 136.235 41.2823 136.854 41.4788C137.074 41.5488 137.216 41.7616 137.454 41.8123C137.786 41.8833 138.106 41.7133 138.391 41.568C139.006 41.2552 139.583 40.7679 140.32 40.929C140.96 41.0689 141.618 41.5286 142.082 41.9729C142.647 42.5128 143.057 43.168 143.161 43.9508C143.257 44.675 143.088 45.4139 143.22 46.1337L143.219 46.1332Z" fill="#8A8B8D"/>
<path d="M189.868 70C189.303 69.4739 189.638 69.1877 189.956 68.664C190.275 68.1384 190.311 67.5226 190.186 66.9309C190.069 66.3748 189.734 66.1772 189.278 65.8737C189.092 65.7501 188.828 65.6782 188.661 65.555C188.395 65.3585 188.349 64.9245 188.25 64.6235C188.878 64.4437 189.466 64.4151 190.117 64.3624C190.638 64.32 191.223 64.3244 191.465 63.783C191.675 63.3155 191.49 62.7608 191.689 62.2943C191.845 61.9273 192.376 61.58 192.711 61.8243C193.383 62.3145 192.782 63.5875 193.456 64.185C193.762 64.4565 194.196 64.5087 194.589 64.5116C194.953 64.5146 196.007 64.2545 196.292 64.6235C196.894 65.4033 194.883 66.0639 194.581 66.5358C194.351 66.895 194.299 67.393 194.361 67.8083C194.443 68.3546 194.959 68.7408 195.014 69.2522C195.178 70.7764 193.09 68.7093 192.771 68.5443C192.189 68.2438 191.79 68.5522 191.371 68.9359C190.885 69.3803 190.449 69.6995 189.867 70H189.868Z" fill="#8A8B8D"/>
<path d="M172.716 69.5985C172.349 70.4793 171.33 69.1842 171.068 68.9354C170.374 68.2758 169.631 68.4531 168.915 68.9896C168.538 69.2724 167.492 70.3921 167.353 69.3256C167.242 68.4714 168.216 67.7876 167.928 66.9556C167.627 66.0871 166.353 66.0856 165.989 65.3259C165.554 64.4175 166.666 64.4392 167.231 64.4609C168.223 64.4983 168.627 64.252 169.127 63.3865C169.359 62.985 169.41 62.7534 169.466 62.3056C169.517 61.8972 169.672 61.6637 169.862 61.2992C170.118 61.7701 170.314 62.184 170.467 62.7012C170.608 63.1771 170.729 63.7609 171.129 64.0929C171.933 64.7609 173.316 64.5151 174.266 64.5151C173.92 64.9205 173.593 65.3708 173.214 65.7447C172.913 66.0422 172.497 66.2122 172.22 66.5353C171.529 67.3418 172.438 68.7704 172.716 69.5985H172.716Z" fill="#8A8B8D"/>
<path d="M188.899 46.4834C188.899 47.1032 189.331 50.119 188.104 49.6382C187.718 49.487 187.444 49.0013 186.969 49.1944C186.724 49.2944 186.654 49.5796 186.437 49.7052C186.169 49.8594 185.709 49.8033 185.417 49.8112C184.202 49.8442 182.959 49.6678 182.594 48.3037C182.402 47.5855 182.329 46.2174 182.89 45.6243C183.166 45.3327 183.568 45.1834 183.931 45.0336C184.543 44.7809 185.052 44.5233 185.715 44.4011C186.109 44.3287 187.04 44.3144 187.321 43.9637C187.684 43.5095 187.231 42.8745 186.874 42.5907C186.451 42.2547 185.958 42.139 185.425 42.1434C184.799 42.1483 184.406 42.5134 183.838 42.6212C183.38 42.7084 183.219 42.2838 183.383 41.8656C183.608 41.2941 184.638 41.2527 185.178 41.1414C185.552 41.064 185.925 40.9384 186.297 41.0532C186.578 41.1394 186.8 41.3118 187.085 41.3729C187.697 41.5035 188.065 41.6582 188.426 42.2129C189.187 43.3833 188.904 45.1637 188.904 46.4834H188.899ZM186.518 45.4174C185.831 45.5445 185.244 45.5095 184.834 45.7613C184.163 46.1741 183.749 46.8495 184.01 47.7007C184.086 47.948 184.321 48.2924 184.529 48.3283C185.462 48.4904 186.436 48.7486 187.136 47.7224C187.405 47.3268 187.738 46.3495 187.433 45.9145C187.237 45.6361 186.772 45.546 186.519 45.4174H186.518Z" fill="#8A8B8D"/>
<path d="M121.298 64.5121C122.293 64.5702 124.249 64.8402 124.497 63.5367C124.571 63.1475 124.51 62.6904 124.676 62.3244C124.795 62.0638 125.232 61.5913 125.569 61.7204C125.95 61.8662 125.867 62.616 125.898 62.9367C125.936 63.3387 126.023 63.75 126.298 64.0623C126.984 64.8417 128.235 64.5638 129.133 64.5067C129.5 65.4461 129.059 65.3732 128.339 65.7644C127.711 66.1058 127.333 66.8294 127.329 67.5339C127.328 67.9073 127.442 68.2186 127.616 68.5438C127.779 68.8463 128.143 69.333 127.836 69.6857C127.332 70.267 126.148 68.7778 125.694 68.5526C124.612 68.0147 124.056 69.5226 123.149 69.7837C122.858 69.868 122.679 69.8212 122.599 69.5532C122.469 69.1177 122.992 68.761 123.129 68.3783C123.37 67.7014 123.32 66.655 122.768 66.1511C122.196 65.6289 121.189 65.4747 121.297 64.5121H121.298Z" fill="#8A8B8D"/>
<path d="M143.414 64.4654C144.284 64.4654 145.587 64.7772 146.324 64.1791C146.738 63.8432 146.747 63.2673 146.935 62.8042C147.023 62.586 147.327 61.6687 147.602 61.6042C148.174 61.4697 148.041 62.6461 148.129 62.9466C148.263 63.4042 148.576 63.855 148.917 64.1821C149.286 64.5363 149.718 64.6284 150.219 64.6003C150.544 64.5821 151.134 64.3353 151.417 64.5925C152.283 65.3792 149.95 66.2122 149.668 66.5851C148.962 67.5182 150.371 68.4305 150.105 69.3759C149.926 70.0114 149.35 69.437 149.056 69.2379C148.612 68.9379 148.091 68.4384 147.514 68.5261C146.708 68.6483 145.701 70.3424 144.998 69.4971C145.111 68.9906 145.162 68.4005 145.369 67.9221C145.563 67.4709 145.85 67.1743 145.535 66.6876C145.275 66.2866 144.717 66.061 144.345 65.7743C143.848 65.391 143.693 65.0092 143.415 64.4654H143.414Z" fill="#8A8B8D"/>
<path d="M196.871 42.6212C196.243 42.4134 195.371 41.9414 194.691 42.2104C194.441 42.3094 194.352 42.5464 194.137 42.6602C193.814 42.8316 193.576 42.7695 193.298 43.069C192.945 43.4518 192.49 44.1696 192.427 44.6721C192.335 45.4041 192.273 46.2524 192.721 46.8756C193.039 47.3189 193.479 47.9791 193.988 48.1865C194.721 48.4845 195.676 48.2357 196.443 48.2855C196.997 48.3214 197.318 48.6569 197.16 49.2496C196.95 50.0412 195.992 49.5964 195.443 49.9274C195.086 50.1432 195.18 50.289 195.348 50.6984C195.474 51.0028 195.735 51.3028 195.783 51.6285C195.877 52.2827 195.26 52.9438 194.675 53.1216C194.24 53.2531 193.285 53.3463 193.091 52.8206C192.791 52.0098 193.595 52.1339 194.027 51.8797C194.375 51.6748 194.287 51.5649 194.115 51.2802C193.869 50.8752 193.823 50.6102 193.706 50.1727C193.534 49.5269 192.791 49.1693 192.324 48.7604C191.799 48.3012 191.154 47.8569 190.955 47.1574C190.761 46.4756 190.903 45.7051 190.882 45.0056C190.834 43.4612 191.816 41.9059 193.319 41.4389C194.193 41.167 195.062 40.8434 195.98 41.1059C196.295 41.1956 196.886 41.3655 197.083 41.6527C197.31 41.9838 197.039 42.3291 196.87 42.6212H196.871Z" fill="#8A8B8D"/>
<path d="M110.685 43.968C110.309 44.0734 110.029 44.2109 109.744 44.2212C108.891 44.2518 108.036 44.2306 107.182 44.234C106.37 44.2375 105.866 44.739 105.864 45.5503C105.86 46.6982 105.883 47.8475 105.842 48.9938C105.834 49.2332 105.623 49.6441 105.465 49.6643C105.098 49.7111 104.651 49.6549 104.567 49.1249C104.534 48.9155 104.481 48.7056 104.48 48.4958C104.475 45.2814 104.476 42.0665 104.478 38.8521C104.479 38.1412 104.599 38.021 105.311 38.0195C106.888 38.0161 108.465 38.0259 110.043 38.0126C110.499 38.0087 110.701 38.1747 110.698 38.6467C110.694 39.1215 110.543 39.3984 110.024 39.3969C108.874 39.393 107.723 39.4058 106.573 39.3999C106.076 39.3974 105.855 39.623 105.864 40.1176C105.875 40.7901 105.872 41.4625 105.86 42.135C105.852 42.6059 106.061 42.9035 106.529 42.9355C107.279 42.9867 108.058 43.1242 108.778 42.9867C109.663 42.8177 110.13 43.2118 110.685 43.968Z" fill="#8A8B8D"/>
<path d="M204.71 46.211C204.71 46.8159 204.715 47.4214 204.713 48.0263C204.711 48.3249 204.876 49.4441 204.451 49.5924C204.146 49.6993 203.702 49.1475 203.384 49.0865C202.85 48.984 202.578 49.3845 202.136 49.5618C201.67 49.749 201.054 49.6618 200.558 49.6801C200.083 49.6978 199.755 49.6131 199.382 49.3155C199.117 49.1042 198.742 48.8062 198.601 48.4938C198.441 48.1426 198.495 47.5613 198.487 47.1893C198.462 46.0598 198.959 45.4381 199.932 44.9021C200.418 44.6346 200.957 44.4651 201.503 44.3769C201.993 44.2976 202.526 44.3055 202.986 44.1011C203.985 43.6567 202.74 42.4271 202.144 42.233C201.171 41.9163 200.341 42.3409 199.462 42.7035C199.358 42.3325 199.127 41.9532 199.436 41.6182C199.702 41.33 200.394 41.232 200.759 41.1601C201.684 40.9778 202.463 41.3044 203.338 41.5222C204.035 41.6961 204.497 42.4508 204.679 43.1237C204.8 43.5715 204.708 43.9942 204.684 44.4474C204.653 45.0346 204.708 45.6233 204.71 46.2105V46.211ZM202.003 45.5967C201.218 45.6046 200.563 45.8923 200.037 46.4598C199.618 46.9125 199.948 48.2175 200.541 48.3214C200.998 48.4012 201.477 48.3657 201.945 48.3618C202.295 48.3588 203.257 47.6544 203.298 47.3307C203.493 45.7977 203.602 45.4888 202.002 45.5972L202.003 45.5967Z" fill="#8A8B8D"/>
<path d="M121.485 42.4892C120.892 42.3882 120.386 42.1478 119.783 42.3394C119.151 42.5399 118.465 42.9611 118.024 43.4572C117.304 44.2651 117.459 45.3312 117.591 46.3149C117.739 47.4145 118.246 48.2544 119.457 48.3554C120.125 48.4111 120.81 48.3554 121.481 48.3662C122.016 48.3746 122.616 48.4643 122.19 49.1155C121.929 49.5146 121.507 49.7427 121.036 49.7584C120.408 49.7796 119.721 49.7826 119.093 49.7392C118.496 49.6978 118.208 49.4471 117.749 49.1116C117.252 48.749 116.786 48.586 116.433 48.0431C115.815 47.0928 115.536 45.7972 115.867 44.7257C116.007 44.2745 116.069 43.7671 116.248 43.338C116.434 42.8941 116.818 42.5867 117.166 42.2734C117.554 41.9237 117.777 41.5616 118.294 41.4404C118.954 41.2857 119.697 40.9389 120.381 40.9685C120.734 40.9837 120.961 41.1433 121.277 41.265C121.537 41.365 121.836 41.3832 122.078 41.5296C122.776 41.9517 121.934 42.3971 121.518 42.6247L121.485 42.4892H121.485Z" fill="#8A8B8D"/>
<path d="M179.392 41.9783C179.797 41.6758 180.236 41.2196 180.701 41.0117C181.064 40.8497 181.235 40.9827 181.513 41.2349C182.146 41.8088 181.731 42.5039 181.018 42.8133C180.509 43.034 180.157 42.9502 179.74 43.3892C179.472 43.6705 179.317 44.0089 179.25 44.3902C179.077 45.372 179.213 46.4779 179.21 47.4696C179.208 48.1864 179.531 49.549 178.582 49.7721C177.504 50.0259 177.693 48.8401 177.692 48.145C177.689 46.9676 177.689 45.7902 177.688 44.6129C177.687 43.4438 177.645 42.4192 177.955 41.2891C178.533 41.4635 178.948 41.5655 179.392 41.9778V41.9783Z" fill="#8A8B8D"/>
<path d="M173.205 11.1176C172.284 11.1122 170.914 9.7082 170.891 8.74708C170.87 7.83424 172.358 6.34256 173.287 6.33961C174.304 6.33616 175.758 7.74212 175.746 8.6924C175.733 9.68898 174.228 11.124 173.205 11.1181V11.1176Z" fill="#8A8B8D"/>
<path d="M112.267 45.3361C112.267 44.3745 112.258 43.4124 112.267 42.4508C112.273 41.8163 112.397 41.4882 113.088 41.4586C113.665 41.434 113.997 41.5882 114.042 42.1813C114.114 43.1385 114.042 44.1287 114.043 45.0888C114.044 46.014 114.045 46.9391 114.05 47.8643C114.054 48.4825 114.083 49.4131 113.307 49.6446C111.822 50.0885 112.265 45.981 112.265 45.3356C112.266 45.3356 112.267 45.3356 112.267 45.3356V45.3361Z" fill="#8A8B8D"/>
<path d="M200.268 40.0004C199.889 39.6773 199.819 39.1536 200.147 38.7763C200.443 38.4363 200.846 37.9999 201.293 38.2762C201.694 38.524 201.896 38.7137 202.41 38.7295C202.944 38.7457 203.314 38.5935 203.74 38.2955C203.977 38.8053 203.973 39.0733 203.551 39.4477C203.28 39.6876 203.008 40.0246 202.613 39.9773C202.107 39.9167 201.849 39.3083 201.327 39.2945C200.859 39.2822 200.589 39.7339 200.268 40.0004H200.268Z" fill="#8A8B8D"/>
<path d="M113.088 39.7127C112.642 39.3939 111.889 39.2338 112.21 38.4658C112.312 38.221 112.834 38.0422 113.168 38.0353C113.458 38.0294 113.926 38.2402 114.018 38.4727C114.338 39.2787 113.598 39.4265 113.088 39.7132V39.7127Z" fill="#8A8B8D"/>
</g>
<defs>
<clipPath id="clip0_247_190">
<rect width="240" height="70" fill="white"/>
</clipPath>
</defs>
</svg>
